<?xml version="1.0" encoding="utf-8"?>
<!-- Generator: Adobe Illustrator 24.0.3, SVG Export Plug-In . SVG Version: 6.00 Build 0)  -->
<svg version="1.1" id="Layer_1" xmlns="http://www.w3.org/2000/svg" xmlns:xlink="http://www.w3.org/1999/xlink" x="0px" y="0px"
	 width="905.4px" height="231.6px" viewBox="0 0 905.4 231.6" style="enable-background:new 0 0 905.4 231.6;" xml:space="preserve"
	>
<style type="text/css">
	.st0{fill:#FFFFFF;}
	.st1{fill:#5BBEC0;}
</style>
<g id="Layer_2_1_">
	<path class="st0" d="M285.3,71.7h20.1l34.1,83.9h-18.8l-8.5-22.1h-34.7l-8.6,22.1h-18L285.3,71.7z M306.9,119.7L295,88.7l-12,30.9
		H306.9z"/>
	<path class="st0" d="M345.5,93.1h16.4v4.9c4.9-4.1,11.1-6.2,17.5-6.1c14.5,0,24.7,10.2,24.7,24.8v38.9h-16.4v-36.4
		c0-7.9-5-13.1-12.9-13.1c-5.1-0.2-9.9,2.1-12.8,6.2v43.3h-16.5V93.1z"/>
	<path class="st0" d="M419.5,137.3c7.3,4.8,13.7,7.1,20.3,7.1c7.3,0,12.1-2.6,12.1-6.6c0-3.2-2.4-5-7.8-5.9l-12-1.8
		c-12.3-1.9-18.9-8-18.9-18c0-12,10.1-19.8,26-19.8c9.1,0,18.1,2.7,25.7,7.8l-7.9,10.5c-6.8-4.1-12.9-6-19.3-6c-6,0-9.8,2.4-9.8,6.1
		c0,3.4,2.4,5,8.5,5.9l12,1.8c12.2,1.8,19.1,8.1,19.1,17.9c0,11.8-11.6,20.6-27.3,20.6c-11.4,0-21.6-3-28.7-8.6L419.5,137.3z"/>
	<path class="st0" d="M474.2,76.4c0-5.2,4.2-9.4,9.4-9.4s9.4,4.2,9.4,9.4s-4.2,9.4-9.4,9.4C478.4,85.7,474.3,81.5,474.2,76.4z
		 M491.9,155.6h-16.4V93.1h16.4L491.9,155.6z"/>
	<path class="st0" d="M538.1,156.5c-6.1,0-12.1-1.7-17.3-5v4.2h-16.2V71.7l16.4-3.6v30c5.1-3.8,11.2-5.8,17.5-5.7
		c17.7,0.1,32,14.6,31.8,32.3S555.9,156.6,538.1,156.5L538.1,156.5z M521.1,112.1v24.6c4,3.8,9.4,5.9,14.9,5.8
		c10,0,18.1-8.1,18.1-18.1c0-10-8.1-18.1-18.1-18.1C530.4,106.1,525.1,108.2,521.1,112.1z"/>
	<path class="st0" d="M596.9,155.6h-16.4V71.7l16.4-3.6V155.6z"/>
	<path class="st0" d="M640.4,156.8c-18.9,0-33.6-14.1-33.6-32.4c-0.3-17.6,13.8-32.1,31.4-32.4c0.2,0,0.5,0,0.7,0
		c17.7,0,30.9,14.4,30.9,33.6v4.3h-46.5c2.3,7.9,9.5,13.2,17.7,13.1c5.1,0.2,10-1.6,13.8-5l10.8,9.8
		C658.7,153.8,649.7,157,640.4,156.8z M623.3,118.2h30.6c-2-7.4-8-12.6-15.2-12.6C631.1,105.6,625.3,110.5,623.3,118.2z"/>
	<path class="st0" d="M682.8,71.7h60.1v8.1H692v30h33.3v8H692v37.8h-9.2V71.7z"/>
	<path class="st0" d="M772.2,156.7c-16.9,0.2-30.8-13.4-30.9-30.3c0-0.3,0-0.6,0-0.9c0-17.3,13.1-30.9,29.6-30.9
		c15.9,0,28.4,13.7,28.4,30.9v2.8h-49.2c1,11.7,10.8,20.7,22.6,20.6c6,0.1,11.8-1.8,16.5-5.5l5.5,5.9
		C788.3,154.2,780.3,156.9,772.2,156.7z M750.3,121.2h40.2c-1.5-10.7-9.8-18.8-19.8-18.8C760.2,102.4,751.9,110.2,750.3,121.2z"/>
	<path class="st0" d="M811.5,141.6c5.3,5.1,12.2,7.9,19.5,8c9.6,0,16.3-4.4,16.3-10.8c0-5.2-3.5-8-11.2-9.1l-10.4-1.5
		c-12-1.8-17.7-7.1-17.7-16.2c0-10.1,9.3-17.5,22.6-17.5c8.5-0.1,16.8,2.7,23.6,7.9l-4.7,6c-6.7-4.5-12.8-6.7-19.4-6.7
		c-8.3,0-13.9,4.1-13.9,9.9c0,5.2,3.2,7.7,11.1,8.9l10.4,1.5c12,1.7,18,7.1,18,16.3c0,10.4-10.5,18.3-24.3,18.3
		c-9.3,0.2-18.4-3.1-25.3-9.4L811.5,141.6z"/>
	<path class="st0" d="M872,103.1h-13v-7.5h13V80.3l8.8-2.3v17.6h18v7.5h-18v36.8c0,6.5,2.6,9,9.2,9c3,0.1,6-0.4,8.8-1.5v7.8
		c-3.4,1.1-7,1.6-10.5,1.5c-10.4,0-16.2-5-16.2-14.5L872,103.1z"/>
	<circle class="st1" cx="112.8" cy="115.2" r="108.3"/>
	<path class="st0" d="M164.5,158.2L121.3,54.5c-1-2.8-3.7-4.6-6.7-4.5c-3-0.1-5.7,1.7-6.9,4.5L60.5,168.3h16.2l18.7-46.9l55.9,45.1
		c2.3,1.8,3.9,2.6,6,2.6c4.3,0.1,7.8-3.3,7.9-7.5c0-0.1,0-0.1,0-0.2C165.1,160.3,164.9,159.3,164.5,158.2z M114.7,73.1l28,69.2
		l-42.3-33.4L114.7,73.1z"/>
</g>
</svg>
